<?xml version="1.0" encoding="utf-8"?>
<!-- Generator: Adobe Illustrator 23.0.5, SVG Export Plug-In . SVG Version: 6.00 Build 0)  -->
<svg version="1.1" id="Layer_1" xmlns="http://www.w3.org/2000/svg" xmlns:xlink="http://www.w3.org/1999/xlink" x="0px" y="0px"
	 viewBox="0 0 278.8 50" style="enable-background:new 0 0 278.8 50;" xml:space="preserve">
<style type="text/css">
	.st0{fill:#111722;}
	.st1{fill:url(#SVGID_1_);}
	.st2{fill:url(#SVGID_2_);}
	.st3{fill:url(#SVGID_3_);}
</style>
<g>
	<path class="st0" d="M78.8,37.4v-13h-8.5v-6h24.2v6h-8.5v13H78.8z"/>
	<path class="st0" d="M96.9,18.4h21.5v4.9H104v2.4h14.4v4.4H104v2.4h14.4v4.9H96.9V18.4z"/>
	<path class="st0" d="M145.6,29.5c-0.5,6.4-5.9,8.3-12.5,8.3c-6.9,0-12.6-2.1-12.6-9.3v-1.4c0-7.2,5.7-9.2,12.6-9.3
		c6.6,0,12.1,1.9,12.5,8.3h-7.4c-0.7-1.9-2.7-2.3-5.2-2.3c-2.9,0-5.4,0.6-5.4,3.7v0.5c0,3.1,2.5,3.7,5.4,3.7c2.5,0,4.5-0.5,5.2-2.3
		H145.6z"/>
	<path class="st0" d="M154.9,30.9v6.5h-7.2v-19h7.2v6.5h10.8v-6.5h7.2v19h-7.2v-6.5H154.9z"/>
	<path class="st0" d="M187.4,25.2l5.4-6.8h8.5L191,30.9v6.5h-7.2v-6.5l-10.3-12.5h8.5L187.4,25.2z"/>
	<path class="st0" d="M219.8,18.4h7.2v19h-8.1L209,25.8v11.6h-7.2v-19h9.9l8.1,10.1V18.4z"/>
	<path class="st0" d="M237.4,18.4h8.5l9.9,19h-8.1l-1.5-3.2h-9.2l-1.5,3.2h-8.1L237.4,18.4z M239.2,29.5h5.1l-2.5-5.6L239.2,29.5z"
		/>
	<path class="st0" d="M256.4,18.4h22.4v6h-15.3v2.3H277v5.5h-13.5v5.1h-7.2V18.4z"/>
</g>
<g>
	
		<linearGradient id="SVGID_1_" gradientUnits="userSpaceOnUse" x1="-18.8992" y1="-5.4604" x2="27.4589" y2="-5.4604" gradientTransform="matrix(0.9093 -0.4043 0.4132 0.9053 38.9939 33.8863)">
		<stop  offset="0" style="stop-color:#040343"/>
		<stop  offset="0.144" style="stop-color:#031155"/>
		<stop  offset="0.5226" style="stop-color:#01337E"/>
		<stop  offset="0.821" style="stop-color:#004798"/>
		<stop  offset="1" style="stop-color:#004FA1"/>
	</linearGradient>
	<path class="st1" d="M38.8,12.7L25.2,48.9l0.7,0.3c6.6,2.5,14-0.8,16.5-7.4L56.1,5.6l-0.7-0.3C48.8,2.8,41.4,6.1,38.8,12.7z"/>
	<g>
		
			<linearGradient id="SVGID_2_" gradientUnits="userSpaceOnUse" x1="-22.7629" y1="5.3017" x2="4.5868" y2="-3.06" gradientTransform="matrix(0.9118 -0.4107 0.4107 0.9118 25.3929 20.8547)">
			<stop  offset="0" style="stop-color:#050B54"/>
			<stop  offset="7.917956e-02" style="stop-color:#071E65"/>
			<stop  offset="0.4498" style="stop-color:#0E74B0"/>
			<stop  offset="0.7113" style="stop-color:#13A9E0"/>
			<stop  offset="0.838" style="stop-color:#15BEF2"/>
		</linearGradient>
		<path class="st2" d="M17.9,18L0,26.1l0.3,0.7c2.9,6.5,10.5,9.3,17,6.4l17.9-8l-0.3-0.7C31.9,18,24.3,15.1,17.9,18z"/>
		
			<linearGradient id="SVGID_3_" gradientUnits="userSpaceOnUse" x1="-3.5095" y1="7.6606" x2="45.3036" y2="-5.4189" gradientTransform="matrix(0.9118 -0.4107 0.4107 0.9118 25.3929 20.8547)">
			<stop  offset="0" style="stop-color:#04206C"/>
			<stop  offset="0.1634" style="stop-color:#094489"/>
			<stop  offset="0.4486" style="stop-color:#117DB7"/>
			<stop  offset="0.6934" style="stop-color:#16A7D8"/>
			<stop  offset="0.8851" style="stop-color:#1AC1EC"/>
			<stop  offset="1" style="stop-color:#1BCAF4"/>
		</linearGradient>
		<path class="st3" d="M55.3,1.1L17.2,18.3l0.3,0.7c2.9,6.5,10.5,9.3,17,6.4L72.6,8.3l-0.3-0.7C69.4,1.1,61.8-1.8,55.3,1.1z"/>
	</g>
</g>
</svg>
